<?xml version="1.0" encoding="utf-8"?>
<!-- Generator: Adobe Illustrator 26.5.0, SVG Export Plug-In . SVG Version: 6.00 Build 0)  -->
<svg version="1.1" id="Layer_1" xmlns="http://www.w3.org/2000/svg" xmlns:xlink="http://www.w3.org/1999/xlink" x="0px" y="0px"
	 viewBox="0 0 50.8 47.7" style="enable-background:new 0 0 50.8 47.7;" xml:space="preserve">
<style type="text/css">
	.st0{fill:#3056FB;}
</style>
<g>
	<g>
		<path class="st0" d="M25.1,6.4c-9.7,0-17.6,7.9-17.6,17.6c0,9.7,7.9,17.6,17.6,17.6c9.7,0,17.6-7.9,17.6-17.6
			C42.6,14.2,34.7,6.4,25.1,6.4z M20.8,8.3c-1.3,1.3-2.4,3.1-3.2,5.4c-1.3-0.4-2.5-0.8-3.7-1.4C15.8,10.5,18.1,9.1,20.8,8.3z
			 M12.8,13.4c1.4,0.7,2.8,1.2,4.3,1.7c-0.7,2.4-1.1,5.2-1.2,8.2h-7C9.1,19.5,10.5,16,12.8,13.4z M8.9,24.6h7c0.1,3,0.5,5.8,1.2,8.2
			c-1.5,0.4-2.9,1-4.3,1.7C10.5,31.8,9.1,28.4,8.9,24.6z M13.8,35.5c1.2-0.6,2.5-1,3.7-1.4c0.8,2.3,1.9,4.1,3.2,5.4
			C18.1,38.8,15.8,37.4,13.8,35.5z M24.3,40c-2.2-0.4-4.1-2.8-5.4-6.3c1.7-0.4,3.5-0.6,5.4-0.7V40z M24.3,31.7c-2,0-3.9,0.3-5.8,0.7
			c-0.7-2.3-1.1-5-1.2-7.8h7V31.7z M24.3,23.2h-7c0.1-2.8,0.5-5.5,1.2-7.8c1.9,0.5,3.8,0.7,5.8,0.7V23.2z M24.3,14.8
			c-1.8,0-3.6-0.3-5.4-0.7c1.3-3.4,3.2-5.8,5.4-6.3V14.8z M41.2,23.2h-7c-0.1-3-0.5-5.8-1.2-8.2c1.5-0.4,2.9-1,4.3-1.7
			C39.6,16,41,19.5,41.2,23.2z M36.3,12.3c-1.2,0.6-2.5,1-3.7,1.4c-0.8-2.3-1.9-4.1-3.2-5.4C32,9.1,34.4,10.5,36.3,12.3z M25.8,7.8
			c2.2,0.4,4.1,2.8,5.4,6.3c-1.7,0.4-3.5,0.6-5.4,0.7V7.8z M25.8,16.2c2,0,3.9-0.3,5.8-0.8c0.7,2.3,1.1,5,1.2,7.8h-7V16.2z
			 M25.8,24.6h7c-0.1,2.8-0.5,5.5-1.2,7.8c-1.9-0.5-3.9-0.7-5.8-0.8V24.6z M25.8,40v-6.9c1.8,0,3.6,0.3,5.4,0.7
			C29.8,37.2,27.9,39.6,25.8,40z M29.3,39.5c1.3-1.3,2.4-3.1,3.2-5.4c1.3,0.4,2.5,0.8,3.7,1.4C34.4,37.4,32,38.8,29.3,39.5z
			 M37.3,34.5c-1.4-0.7-2.8-1.2-4.3-1.7c0.7-2.4,1.1-5.2,1.2-8.2h7C41,28.4,39.6,31.8,37.3,34.5z"/>
	</g>
</g>
</svg>
